<mxfile host="app.diagrams.net" modified="2023-10-08T19:51:52.871Z" agent="Mozilla/5.0 (Windows NT 10.0; Win64; x64) AppleWebKit/537.36 (KHTML, like Gecko) Chrome/117.0.0.0 Safari/537.36" etag="zECbDROpoad-6D3ylSgh" version="21.7.5" type="github" pages="2">
  <diagram id="R2lEEEUBdFMjLlhIrx00" name="Page-1">
    <mxGraphModel dx="794" dy="390" grid="1" gridSize="10" guides="1" tooltips="1" connect="1" arrows="1" fold="1" page="1" pageScale="1" pageWidth="850" pageHeight="1100" math="0" shadow="0" extFonts="Permanent Marker^https://fonts.googleapis.com/css?family=Permanent+Marker">
      <root>
        <mxCell id="0" />
        <mxCell id="1" parent="0" />
        <mxCell id="4wj4wJKNcFFEIcPxOrJc-1" value="Author" style="whiteSpace=wrap;html=1;align=center;" vertex="1" parent="1">
          <mxGeometry x="80" y="300" width="100" height="40" as="geometry" />
        </mxCell>
        <mxCell id="4wj4wJKNcFFEIcPxOrJc-2" value="Task" style="whiteSpace=wrap;html=1;align=center;" vertex="1" parent="1">
          <mxGeometry x="375" y="300" width="100" height="40" as="geometry" />
        </mxCell>
        <mxCell id="4wj4wJKNcFFEIcPxOrJc-4" value="TaskID" style="ellipse;whiteSpace=wrap;html=1;align=center;fontStyle=4;" vertex="1" parent="1">
          <mxGeometry x="375" y="210" width="100" height="40" as="geometry" />
        </mxCell>
        <mxCell id="4wj4wJKNcFFEIcPxOrJc-6" value="FirstName" style="ellipse;whiteSpace=wrap;html=1;align=center;" vertex="1" parent="1">
          <mxGeometry x="20" y="210" width="100" height="40" as="geometry" />
        </mxCell>
        <mxCell id="4wj4wJKNcFFEIcPxOrJc-7" value="LastName" style="ellipse;whiteSpace=wrap;html=1;align=center;" vertex="1" parent="1">
          <mxGeometry x="130" y="210" width="100" height="40" as="geometry" />
        </mxCell>
        <mxCell id="4wj4wJKNcFFEIcPxOrJc-9" value="" style="endArrow=none;html=1;rounded=0;exitX=0.5;exitY=0;exitDx=0;exitDy=0;entryX=0.5;entryY=1;entryDx=0;entryDy=0;" edge="1" parent="1" source="4wj4wJKNcFFEIcPxOrJc-1" target="4wj4wJKNcFFEIcPxOrJc-6">
          <mxGeometry relative="1" as="geometry">
            <mxPoint x="130" y="190" as="sourcePoint" />
            <mxPoint x="370" y="200" as="targetPoint" />
          </mxGeometry>
        </mxCell>
        <mxCell id="4wj4wJKNcFFEIcPxOrJc-10" value="" style="endArrow=none;html=1;rounded=0;entryX=0.307;entryY=1.033;entryDx=0;entryDy=0;entryPerimeter=0;exitX=0.5;exitY=0;exitDx=0;exitDy=0;" edge="1" parent="1" source="4wj4wJKNcFFEIcPxOrJc-1" target="4wj4wJKNcFFEIcPxOrJc-7">
          <mxGeometry relative="1" as="geometry">
            <mxPoint x="130" y="190" as="sourcePoint" />
            <mxPoint x="370" y="200" as="targetPoint" />
          </mxGeometry>
        </mxCell>
        <mxCell id="4wj4wJKNcFFEIcPxOrJc-12" value="Authored" style="shape=rhombus;perimeter=rhombusPerimeter;whiteSpace=wrap;html=1;align=center;" vertex="1" parent="1">
          <mxGeometry x="220" y="290" width="120" height="60" as="geometry" />
        </mxCell>
        <mxCell id="4wj4wJKNcFFEIcPxOrJc-13" value="" style="endArrow=none;html=1;rounded=0;entryX=0.5;entryY=1;entryDx=0;entryDy=0;" edge="1" parent="1" source="4wj4wJKNcFFEIcPxOrJc-2" target="4wj4wJKNcFFEIcPxOrJc-4">
          <mxGeometry relative="1" as="geometry">
            <mxPoint x="270" y="200" as="sourcePoint" />
            <mxPoint x="440" y="250" as="targetPoint" />
          </mxGeometry>
        </mxCell>
        <mxCell id="4wj4wJKNcFFEIcPxOrJc-17" value="Name" style="ellipse;whiteSpace=wrap;html=1;align=center;" vertex="1" parent="1">
          <mxGeometry x="260" y="210" width="100" height="40" as="geometry" />
        </mxCell>
        <mxCell id="4wj4wJKNcFFEIcPxOrJc-18" value="Picture" style="ellipse;whiteSpace=wrap;html=1;align=center;" vertex="1" parent="1">
          <mxGeometry x="590" y="250" width="100" height="40" as="geometry" />
        </mxCell>
        <mxCell id="4wj4wJKNcFFEIcPxOrJc-19" value="Difficulty" style="ellipse;whiteSpace=wrap;html=1;align=center;" vertex="1" parent="1">
          <mxGeometry x="620" y="350" width="100" height="40" as="geometry" />
        </mxCell>
        <mxCell id="4wj4wJKNcFFEIcPxOrJc-20" value="Points" style="ellipse;whiteSpace=wrap;html=1;align=center;" vertex="1" parent="1">
          <mxGeometry x="540" y="390" width="100" height="40" as="geometry" />
        </mxCell>
        <mxCell id="4wj4wJKNcFFEIcPxOrJc-21" value="Table" style="ellipse;whiteSpace=wrap;html=1;align=center;" vertex="1" parent="1">
          <mxGeometry x="640" y="300" width="100" height="40" as="geometry" />
        </mxCell>
        <mxCell id="4wj4wJKNcFFEIcPxOrJc-22" value="Text" style="ellipse;whiteSpace=wrap;html=1;align=center;" vertex="1" parent="1">
          <mxGeometry x="490" y="210" width="100" height="40" as="geometry" />
        </mxCell>
        <mxCell id="4wj4wJKNcFFEIcPxOrJc-23" value="" style="endArrow=none;html=1;rounded=0;exitX=1;exitY=0.25;exitDx=0;exitDy=0;entryX=0.06;entryY=0.683;entryDx=0;entryDy=0;entryPerimeter=0;" edge="1" parent="1" source="4wj4wJKNcFFEIcPxOrJc-2" target="4wj4wJKNcFFEIcPxOrJc-18">
          <mxGeometry relative="1" as="geometry">
            <mxPoint x="350" y="300" as="sourcePoint" />
            <mxPoint x="510" y="300" as="targetPoint" />
          </mxGeometry>
        </mxCell>
        <mxCell id="4wj4wJKNcFFEIcPxOrJc-24" value="" style="endArrow=none;html=1;rounded=0;exitX=0;exitY=0;exitDx=0;exitDy=0;entryX=0.587;entryY=1.033;entryDx=0;entryDy=0;entryPerimeter=0;" edge="1" parent="1" source="4wj4wJKNcFFEIcPxOrJc-2" target="4wj4wJKNcFFEIcPxOrJc-17">
          <mxGeometry relative="1" as="geometry">
            <mxPoint x="350" y="300" as="sourcePoint" />
            <mxPoint x="510" y="300" as="targetPoint" />
          </mxGeometry>
        </mxCell>
        <mxCell id="4wj4wJKNcFFEIcPxOrJc-25" value="" style="endArrow=none;html=1;rounded=0;exitX=1;exitY=1;exitDx=0;exitDy=0;entryX=0.307;entryY=0.083;entryDx=0;entryDy=0;entryPerimeter=0;" edge="1" parent="1" source="4wj4wJKNcFFEIcPxOrJc-2" target="4wj4wJKNcFFEIcPxOrJc-20">
          <mxGeometry relative="1" as="geometry">
            <mxPoint x="350" y="300" as="sourcePoint" />
            <mxPoint x="510" y="300" as="targetPoint" />
          </mxGeometry>
        </mxCell>
        <mxCell id="4wj4wJKNcFFEIcPxOrJc-26" value="" style="endArrow=none;html=1;rounded=0;entryX=0.5;entryY=1;entryDx=0;entryDy=0;" edge="1" parent="1" target="4wj4wJKNcFFEIcPxOrJc-22">
          <mxGeometry relative="1" as="geometry">
            <mxPoint x="470" y="300" as="sourcePoint" />
            <mxPoint x="510" y="300" as="targetPoint" />
          </mxGeometry>
        </mxCell>
        <mxCell id="4wj4wJKNcFFEIcPxOrJc-27" value="" style="endArrow=none;html=1;rounded=0;exitX=1;exitY=0.5;exitDx=0;exitDy=0;entryX=0;entryY=0.5;entryDx=0;entryDy=0;" edge="1" parent="1" source="4wj4wJKNcFFEIcPxOrJc-2" target="4wj4wJKNcFFEIcPxOrJc-21">
          <mxGeometry relative="1" as="geometry">
            <mxPoint x="350" y="300" as="sourcePoint" />
            <mxPoint x="510" y="300" as="targetPoint" />
          </mxGeometry>
        </mxCell>
        <mxCell id="4wj4wJKNcFFEIcPxOrJc-28" value="" style="endArrow=none;html=1;rounded=0;exitX=1;exitY=0.75;exitDx=0;exitDy=0;entryX=0;entryY=0.5;entryDx=0;entryDy=0;" edge="1" parent="1" source="4wj4wJKNcFFEIcPxOrJc-2" target="4wj4wJKNcFFEIcPxOrJc-19">
          <mxGeometry relative="1" as="geometry">
            <mxPoint x="350" y="300" as="sourcePoint" />
            <mxPoint x="510" y="300" as="targetPoint" />
          </mxGeometry>
        </mxCell>
        <mxCell id="4wj4wJKNcFFEIcPxOrJc-29" value="Subtask" style="whiteSpace=wrap;html=1;align=center;" vertex="1" parent="1">
          <mxGeometry x="500" y="460" width="100" height="40" as="geometry" />
        </mxCell>
        <mxCell id="4wj4wJKNcFFEIcPxOrJc-35" value="SampleSolution" style="whiteSpace=wrap;html=1;align=center;" vertex="1" parent="1">
          <mxGeometry x="375" y="540" width="100" height="40" as="geometry" />
        </mxCell>
        <mxCell id="4wj4wJKNcFFEIcPxOrJc-37" value="Table" style="ellipse;whiteSpace=wrap;html=1;align=center;" vertex="1" parent="1">
          <mxGeometry x="475" y="640" width="100" height="40" as="geometry" />
        </mxCell>
        <mxCell id="4wj4wJKNcFFEIcPxOrJc-38" value="Picture" style="ellipse;whiteSpace=wrap;html=1;align=center;" vertex="1" parent="1">
          <mxGeometry x="530" y="590" width="100" height="40" as="geometry" />
        </mxCell>
        <mxCell id="4wj4wJKNcFFEIcPxOrJc-39" value="Text" style="ellipse;whiteSpace=wrap;html=1;align=center;" vertex="1" parent="1">
          <mxGeometry x="510" y="530" width="100" height="40" as="geometry" />
        </mxCell>
        <mxCell id="4wj4wJKNcFFEIcPxOrJc-42" value="" style="endArrow=none;html=1;rounded=0;exitX=0;exitY=0.5;exitDx=0;exitDy=0;entryX=1;entryY=0.25;entryDx=0;entryDy=0;" edge="1" parent="1" source="4wj4wJKNcFFEIcPxOrJc-39" target="4wj4wJKNcFFEIcPxOrJc-35">
          <mxGeometry relative="1" as="geometry">
            <mxPoint x="290" y="400" as="sourcePoint" />
            <mxPoint x="450" y="400" as="targetPoint" />
          </mxGeometry>
        </mxCell>
        <mxCell id="4wj4wJKNcFFEIcPxOrJc-44" value="" style="endArrow=none;html=1;rounded=0;entryX=1;entryY=1;entryDx=0;entryDy=0;exitX=0;exitY=0.5;exitDx=0;exitDy=0;" edge="1" parent="1" source="4wj4wJKNcFFEIcPxOrJc-38" target="4wj4wJKNcFFEIcPxOrJc-35">
          <mxGeometry relative="1" as="geometry">
            <mxPoint x="660" y="600" as="sourcePoint" />
            <mxPoint x="560" y="599.5" as="targetPoint" />
          </mxGeometry>
        </mxCell>
        <mxCell id="4wj4wJKNcFFEIcPxOrJc-45" value="" style="endArrow=none;html=1;rounded=0;exitX=0.5;exitY=0;exitDx=0;exitDy=0;entryX=0.623;entryY=0.983;entryDx=0;entryDy=0;entryPerimeter=0;" edge="1" parent="1" source="4wj4wJKNcFFEIcPxOrJc-37" target="4wj4wJKNcFFEIcPxOrJc-35">
          <mxGeometry relative="1" as="geometry">
            <mxPoint x="290" y="400" as="sourcePoint" />
            <mxPoint x="450" y="400" as="targetPoint" />
          </mxGeometry>
        </mxCell>
        <mxCell id="4wj4wJKNcFFEIcPxOrJc-46" style="edgeStyle=orthogonalEdgeStyle;rounded=0;orthogonalLoop=1;jettySize=auto;html=1;exitX=0.5;exitY=1;exitDx=0;exitDy=0;" edge="1" parent="1" source="4wj4wJKNcFFEIcPxOrJc-38" target="4wj4wJKNcFFEIcPxOrJc-38">
          <mxGeometry relative="1" as="geometry" />
        </mxCell>
        <mxCell id="4wj4wJKNcFFEIcPxOrJc-48" value="Exercise" style="whiteSpace=wrap;html=1;align=center;" vertex="1" parent="1">
          <mxGeometry x="80" y="540" width="100" height="40" as="geometry" />
        </mxCell>
        <mxCell id="4wj4wJKNcFFEIcPxOrJc-54" value="Assigned" style="shape=rhombus;perimeter=rhombusPerimeter;whiteSpace=wrap;html=1;align=center;" vertex="1" parent="1">
          <mxGeometry x="70" y="420" width="120" height="60" as="geometry" />
        </mxCell>
        <mxCell id="4wj4wJKNcFFEIcPxOrJc-61" value="Sequence" style="ellipse;whiteSpace=wrap;html=1;align=center;fontStyle=4;" vertex="1" parent="1">
          <mxGeometry x="650" y="460" width="100" height="40" as="geometry" />
        </mxCell>
        <mxCell id="4wj4wJKNcFFEIcPxOrJc-62" value="" style="endArrow=none;html=1;rounded=0;exitX=1;exitY=0.5;exitDx=0;exitDy=0;entryX=0;entryY=0.5;entryDx=0;entryDy=0;" edge="1" parent="1" source="4wj4wJKNcFFEIcPxOrJc-29" target="4wj4wJKNcFFEIcPxOrJc-61">
          <mxGeometry relative="1" as="geometry">
            <mxPoint x="650" y="480" as="sourcePoint" />
            <mxPoint x="810" y="480" as="targetPoint" />
          </mxGeometry>
        </mxCell>
        <mxCell id="4wj4wJKNcFFEIcPxOrJc-66" value="" style="edgeStyle=entityRelationEdgeStyle;fontSize=12;html=1;endArrow=ERmany;startArrow=ERmany;rounded=0;exitX=1;exitY=0.5;exitDx=0;exitDy=0;entryX=0;entryY=0.5;entryDx=0;entryDy=0;" edge="1" parent="1">
          <mxGeometry width="100" height="100" relative="1" as="geometry">
            <mxPoint x="180" y="319.5" as="sourcePoint" />
            <mxPoint x="220" y="319.5" as="targetPoint" />
            <Array as="points">
              <mxPoint x="280" y="269.5" />
              <mxPoint x="280" y="379.5" />
              <mxPoint x="270" y="379.5" />
            </Array>
          </mxGeometry>
        </mxCell>
        <mxCell id="4wj4wJKNcFFEIcPxOrJc-71" value="" style="edgeStyle=entityRelationEdgeStyle;fontSize=12;html=1;endArrow=ERmany;startArrow=ERmany;rounded=0;exitX=1;exitY=0.5;exitDx=0;exitDy=0;entryX=0;entryY=0.5;entryDx=0;entryDy=0;" edge="1" parent="1" source="4wj4wJKNcFFEIcPxOrJc-12" target="4wj4wJKNcFFEIcPxOrJc-2">
          <mxGeometry width="100" height="100" relative="1" as="geometry">
            <mxPoint x="320" y="480" as="sourcePoint" />
            <mxPoint x="420" y="380" as="targetPoint" />
          </mxGeometry>
        </mxCell>
        <mxCell id="4wj4wJKNcFFEIcPxOrJc-72" value="" style="fontSize=12;html=1;endArrow=ERoneToMany;entryX=0;entryY=0;entryDx=0;entryDy=0;exitX=0.75;exitY=1;exitDx=0;exitDy=0;rounded=0;" edge="1" parent="1" source="4wj4wJKNcFFEIcPxOrJc-2" target="4wj4wJKNcFFEIcPxOrJc-29">
          <mxGeometry width="100" height="100" relative="1" as="geometry">
            <mxPoint x="320" y="480" as="sourcePoint" />
            <mxPoint x="420" y="380" as="targetPoint" />
          </mxGeometry>
        </mxCell>
        <mxCell id="4wj4wJKNcFFEIcPxOrJc-74" value="" style="fontSize=12;html=1;endArrow=ERmandOne;startArrow=ERmandOne;rounded=0;entryX=0.5;entryY=1;entryDx=0;entryDy=0;" edge="1" parent="1" source="4wj4wJKNcFFEIcPxOrJc-35" target="4wj4wJKNcFFEIcPxOrJc-2">
          <mxGeometry width="100" height="100" relative="1" as="geometry">
            <mxPoint x="425" y="450" as="sourcePoint" />
            <mxPoint x="410" y="340" as="targetPoint" />
            <Array as="points" />
          </mxGeometry>
        </mxCell>
        <mxCell id="4wj4wJKNcFFEIcPxOrJc-76" value="" style="fontSize=12;html=1;endArrow=ERmany;startArrow=ERmany;rounded=0;exitX=0.5;exitY=0;exitDx=0;exitDy=0;entryX=0.5;entryY=1;entryDx=0;entryDy=0;" edge="1" parent="1" source="4wj4wJKNcFFEIcPxOrJc-54" target="4wj4wJKNcFFEIcPxOrJc-1">
          <mxGeometry width="100" height="100" relative="1" as="geometry">
            <mxPoint x="320" y="480" as="sourcePoint" />
            <mxPoint x="420" y="380" as="targetPoint" />
          </mxGeometry>
        </mxCell>
        <mxCell id="4wj4wJKNcFFEIcPxOrJc-77" value="" style="fontSize=12;html=1;endArrow=ERmany;startArrow=ERmany;rounded=0;exitX=0.5;exitY=0;exitDx=0;exitDy=0;entryX=0.5;entryY=1;entryDx=0;entryDy=0;" edge="1" parent="1" source="4wj4wJKNcFFEIcPxOrJc-48" target="4wj4wJKNcFFEIcPxOrJc-54">
          <mxGeometry width="100" height="100" relative="1" as="geometry">
            <mxPoint x="320" y="480" as="sourcePoint" />
            <mxPoint x="420" y="380" as="targetPoint" />
          </mxGeometry>
        </mxCell>
        <mxCell id="4wj4wJKNcFFEIcPxOrJc-79" value="sequence number" style="ellipse;whiteSpace=wrap;html=1;align=center;fontStyle=4;" vertex="1" parent="1">
          <mxGeometry y="610" width="110" height="40" as="geometry" />
        </mxCell>
        <mxCell id="4wj4wJKNcFFEIcPxOrJc-80" value="Semester" style="ellipse;whiteSpace=wrap;html=1;align=center;" vertex="1" parent="1">
          <mxGeometry x="140" y="620" width="100" height="40" as="geometry" />
        </mxCell>
        <mxCell id="4wj4wJKNcFFEIcPxOrJc-81" value="TotalScore" style="ellipse;whiteSpace=wrap;html=1;align=center;" vertex="1" parent="1">
          <mxGeometry x="220" y="540" width="100" height="40" as="geometry" />
        </mxCell>
        <mxCell id="4wj4wJKNcFFEIcPxOrJc-83" value="" style="endArrow=none;html=1;rounded=0;exitX=0.5;exitY=0;exitDx=0;exitDy=0;entryX=0.25;entryY=1;entryDx=0;entryDy=0;" edge="1" parent="1" source="4wj4wJKNcFFEIcPxOrJc-79" target="4wj4wJKNcFFEIcPxOrJc-48">
          <mxGeometry relative="1" as="geometry">
            <mxPoint x="230" y="530" as="sourcePoint" />
            <mxPoint x="390" y="530" as="targetPoint" />
          </mxGeometry>
        </mxCell>
        <mxCell id="4wj4wJKNcFFEIcPxOrJc-85" value="" style="endArrow=none;html=1;rounded=0;exitX=0.5;exitY=0;exitDx=0;exitDy=0;entryX=0.75;entryY=1;entryDx=0;entryDy=0;" edge="1" parent="1" source="4wj4wJKNcFFEIcPxOrJc-80" target="4wj4wJKNcFFEIcPxOrJc-48">
          <mxGeometry relative="1" as="geometry">
            <mxPoint x="230" y="530" as="sourcePoint" />
            <mxPoint x="390" y="530" as="targetPoint" />
          </mxGeometry>
        </mxCell>
        <mxCell id="4wj4wJKNcFFEIcPxOrJc-86" value="" style="endArrow=none;html=1;rounded=0;exitX=1;exitY=0.5;exitDx=0;exitDy=0;entryX=0;entryY=0.5;entryDx=0;entryDy=0;" edge="1" parent="1" source="4wj4wJKNcFFEIcPxOrJc-48" target="4wj4wJKNcFFEIcPxOrJc-81">
          <mxGeometry relative="1" as="geometry">
            <mxPoint x="230" y="530" as="sourcePoint" />
            <mxPoint x="390" y="530" as="targetPoint" />
          </mxGeometry>
        </mxCell>
        <mxCell id="4wj4wJKNcFFEIcPxOrJc-87" value="" style="fontSize=12;html=1;endArrow=ERoneToMany;rounded=0;exitX=1;exitY=0;exitDx=0;exitDy=0;entryX=0;entryY=1;entryDx=0;entryDy=0;" edge="1" parent="1" source="4wj4wJKNcFFEIcPxOrJc-48" target="4wj4wJKNcFFEIcPxOrJc-2">
          <mxGeometry width="100" height="100" relative="1" as="geometry">
            <mxPoint x="350" y="530" as="sourcePoint" />
            <mxPoint x="450" y="430" as="targetPoint" />
          </mxGeometry>
        </mxCell>
      </root>
    </mxGraphModel>
  </diagram>
  <diagram id="3wv-NaPDFqox_h3lCRrM" name="Page-2">
    <mxGraphModel dx="794" dy="390" grid="1" gridSize="10" guides="1" tooltips="1" connect="1" arrows="1" fold="1" page="1" pageScale="1" pageWidth="827" pageHeight="1169" math="0" shadow="0">
      <root>
        <mxCell id="0" />
        <mxCell id="1" parent="0" />
        <mxCell id="SgFPuHgWwomfjMRA7tq9-1" value="Friend" style="whiteSpace=wrap;html=1;align=center;" vertex="1" parent="1">
          <mxGeometry x="520" y="390" width="100" height="40" as="geometry" />
        </mxCell>
        <mxCell id="SgFPuHgWwomfjMRA7tq9-2" value="Author" style="whiteSpace=wrap;html=1;align=center;" vertex="1" parent="1">
          <mxGeometry x="520" y="230" width="100" height="40" as="geometry" />
        </mxCell>
        <mxCell id="SgFPuHgWwomfjMRA7tq9-3" value="Comic" style="whiteSpace=wrap;html=1;align=center;" vertex="1" parent="1">
          <mxGeometry x="180" y="340" width="100" height="40" as="geometry" />
        </mxCell>
        <mxCell id="SgFPuHgWwomfjMRA7tq9-4" value="Series" style="whiteSpace=wrap;html=1;align=center;" vertex="1" parent="1">
          <mxGeometry x="180" y="170" width="100" height="40" as="geometry" />
        </mxCell>
        <mxCell id="SgFPuHgWwomfjMRA7tq9-5" value="Copy" style="whiteSpace=wrap;html=1;align=center;" vertex="1" parent="1">
          <mxGeometry x="180" y="510" width="100" height="40" as="geometry" />
        </mxCell>
      </root>
    </mxGraphModel>
  </diagram>
</mxfile>
